<svg width="129" height="42" viewBox="0 0 129 42" fill="none" xmlns="http://www.w3.org/2000/svg">
<path d="M46.31 20.334C45.2678 21.4047 43.842 22.6661 42.0327 23.834C35.6478 27.9569 24.4974 30.8613 8.62428 19.6722L0 13.4236L4.97853 16.6511C6.1757 17.4258 7.43098 18.1344 8.72501 18.7651C16.4659 22.5454 25.6443 23.5888 33.1527 20.3068C36.4188 18.878 39.034 16.5732 40.6263 13.6922C40.2776 12.9603 39.8747 12.2517 39.4253 11.5782C36.7055 7.49811 32.2461 4.64049 27.0274 4.14215C26.915 4.13047 26.8027 4.12269 26.6864 4.1149C18.1319 3.46863 10.5924 9.36296 8.91873 17.5893L5.2536 15.4948C7.81454 5.96418 16.8263 -0.704898 26.9886 0.058172C31.4906 0.396882 35.5548 2.14883 38.7783 4.84683C40.08 5.93693 41.2501 7.18275 42.2535 8.55317C44.6983 11.8897 46.1783 15.9658 46.31 20.334Z" fill="#FF4A1C"/>
<path d="M45.9962 24.6907C45.4654 27.7079 44.2953 30.4877 42.6487 32.8937C38.5729 38.8464 31.5449 42.5216 23.8582 41.9415C12.3514 41.0733 3.71936 30.9938 4.58334 19.4271C4.61821 18.9404 4.67245 18.4615 4.74218 17.9866C6.04784 19.1039 7.32637 20.1317 8.57391 21.07C8.60103 29.8219 15.3269 37.2152 24.1604 37.8848C28.8987 38.243 33.3271 36.5922 36.6164 33.6529C30.8359 33.6217 23.7419 31.5311 15.3385 25.4966C26.4966 31.6829 34.9775 30.6862 40.758 28.0116C42.8579 27.0383 44.6014 25.847 45.9923 24.6946L45.9962 24.6907Z" fill="#FF4A1C"/>
<path d="M53.0784 25.7926V8.24194H56.3096V15.421H64.2017V8.24194H67.4329V25.7964H64.2017V17.9828H56.3096V25.7964H53.0784V25.7926Z" fill="white"/>
<path d="M74.364 26.0455C73.1475 26.0455 72.1634 25.7068 71.4118 25.0333C70.6602 24.3598 70.2844 23.3865 70.2844 22.1173C70.2844 20.7508 70.7299 19.7385 71.621 19.0806C72.5121 18.4226 73.8565 18.006 75.6503 17.8269C75.8983 17.7958 76.1617 17.7647 76.4484 17.7296C76.7351 17.6985 77.0567 17.6673 77.4131 17.6323C77.7696 17.6011 78.0524 17.5739 78.2616 17.5466V16.8498C78.2616 16.0516 78.0795 15.4716 77.7115 15.1056C77.3473 14.7435 76.7894 14.5605 76.0416 14.5605C74.9762 14.5605 73.6589 14.8603 72.0937 15.4599C72.0859 15.4365 71.9542 15.0744 71.6985 14.3698C71.4428 13.6651 71.3149 13.3069 71.3033 13.2914C72.8453 12.6295 74.5151 12.2986 76.3128 12.2986C78.1105 12.2986 79.3619 12.684 80.1639 13.4549C80.9659 14.2257 81.3688 15.4754 81.3688 17.2001V25.7925H79.0559C79.0481 25.7613 78.959 25.4927 78.7924 24.9905C78.6258 24.4882 78.5406 24.2196 78.5406 24.1885C77.8897 24.8269 77.2504 25.298 76.6267 25.5978C76.0029 25.8976 75.2435 26.0455 74.3563 26.0455H74.364ZM75.2125 23.8186C75.937 23.8186 76.5647 23.6434 77.1032 23.2969C77.6379 22.9504 78.0214 22.53 78.2539 22.0316V19.4932C78.2306 19.4932 78.0214 19.5088 77.6262 19.54C77.2311 19.5711 77.0218 19.5867 76.987 19.5867C75.7239 19.6996 74.798 19.9371 74.2091 20.3069C73.6202 20.6729 73.3257 21.2647 73.3257 22.0783C73.3257 22.639 73.4884 23.0672 73.8139 23.367C74.1393 23.6668 74.6042 23.8147 75.2086 23.8147L75.2125 23.8186Z" fill="white"/>
<path d="M89.1137 25.9755C88.2148 25.9755 87.4709 25.8704 86.8782 25.6562C86.2854 25.4421 85.8205 25.1073 85.4757 24.644C85.1347 24.1807 84.8945 23.6279 84.7589 22.9894C84.6233 22.3509 84.5574 21.5567 84.5574 20.6067V7.77471L87.6802 7.57227V20.5483C87.6802 21.7319 87.8196 22.53 88.0986 22.9505C88.3775 23.3709 88.9161 23.5812 89.7219 23.5812C90.121 23.5812 90.6247 23.5383 91.2368 23.4488L91.322 25.6913C91.322 25.6913 91.2174 25.7108 91.0315 25.7497C90.8455 25.7886 90.6673 25.8237 90.4968 25.8509C90.3263 25.8782 90.1094 25.9054 89.8459 25.9366C89.5824 25.9638 89.3422 25.9794 89.1175 25.9794L89.1137 25.9755Z" fill="white"/>
<path d="M92.8718 25.7925V12.6256H95.3862L95.731 14.2919C97.0677 12.9643 98.5477 12.3025 100.179 12.3025C101.705 12.3025 102.848 12.7424 103.608 13.6262C104.367 14.5099 104.747 15.7908 104.747 17.4649V25.7925H101.612V17.8503C101.605 16.7875 101.434 15.9933 101.101 15.4677C100.768 14.9421 100.167 14.6774 99.2993 14.6774C98.6252 14.6774 98.0053 14.8525 97.4435 15.199C96.8817 15.5455 96.4749 15.9855 96.2231 16.5111C96.072 17.134 95.9945 18.0917 95.9945 19.3881V25.8003H92.8718V25.7925Z" fill="white"/>
<path d="M113.878 26.0456C111.771 26.0456 110.132 25.4382 108.958 24.2196C107.784 23.0011 107.199 21.3192 107.199 19.1701C107.199 17.0211 107.753 15.4132 108.857 14.1751C109.961 12.9371 111.469 12.3142 113.375 12.3064C115.18 12.3064 116.579 12.8748 117.578 14.0077C118.574 15.1407 119.074 16.6473 119.074 18.5239C119.074 18.6601 119.074 18.8781 119.066 19.1818C119.062 19.4855 119.058 19.7074 119.058 19.8514H110.341C110.372 21.0817 110.709 22.0355 111.349 22.7091C111.988 23.3826 112.867 23.7213 113.991 23.7213C115.42 23.7213 116.796 23.3476 118.117 22.5962L118.559 24.8231C117.245 25.6368 115.684 26.0456 113.871 26.0456H113.878ZM110.411 17.8737H116.133C116.133 16.8031 115.889 15.9816 115.405 15.4054C114.921 14.8292 114.25 14.5411 113.39 14.5411C112.588 14.5411 111.91 14.8214 111.356 15.3781C110.802 15.9388 110.488 16.768 110.407 17.8698L110.411 17.8737Z" fill="white"/>
<path d="M126.854 25.9756C125.963 25.9756 125.223 25.8704 124.63 25.6563C124.037 25.4461 123.576 25.1113 123.239 24.6558C122.906 24.2002 122.669 23.663 122.53 23.044C122.39 22.4249 122.321 21.6619 122.321 20.7509V14.5334H120.174L120.294 12.8321L122.538 12.6296L123.541 9.05953L125.447 9.04785V12.6296H128.702V14.5334H125.447V20.8131C125.447 21.8137 125.591 22.5223 125.877 22.9466C126.164 23.371 126.691 23.5812 127.462 23.5812C127.915 23.5812 128.399 23.5423 128.915 23.4605L129 25.7147C129 25.7147 128.888 25.7342 128.709 25.7692C128.531 25.8042 128.361 25.8354 128.198 25.8665C128.035 25.8938 127.826 25.921 127.57 25.9444C127.315 25.9678 127.078 25.9794 126.854 25.9794V25.9756Z" fill="white"/>
<path d="M54.8064 33.0612H54.3337V29.4444H53.0978V29.0278H56.0384V29.4444H54.8025V33.0612H54.8064Z" fill="white"/>
<path d="M57.592 33.1234C57.1581 33.1234 56.8172 32.9871 56.5692 32.7107C56.3212 32.4343 56.1973 32.0566 56.1973 31.5778C56.1973 31.0989 56.3174 30.7368 56.5576 30.4487C56.7978 30.1606 57.1155 30.0127 57.5068 30.0088C57.8749 30.0088 58.1693 30.1373 58.3863 30.3903C58.6032 30.6434 58.7117 30.9821 58.7117 31.4065C58.7117 31.4298 58.7117 31.4687 58.7117 31.5271C58.7117 31.5855 58.7117 31.6284 58.7117 31.6517H56.6661C56.6699 31.9904 56.759 32.2552 56.9295 32.4459C57.1 32.6367 57.3247 32.7301 57.6114 32.7301C57.9252 32.7301 58.2429 32.6484 58.5567 32.481L58.6265 32.8508C58.3243 33.0377 57.9795 33.1273 57.592 33.1273V33.1234ZM58.0492 30.62C57.9175 30.4604 57.7354 30.3825 57.5029 30.3825C57.2705 30.3825 57.0806 30.4643 56.9373 30.6278C56.79 30.7913 56.7048 31.0171 56.6777 31.3013H58.2507C58.2507 31.0055 58.1848 30.7758 58.0531 30.62H58.0492Z" fill="white"/>
<path d="M60.5985 33.1233C60.1607 33.1233 59.8198 32.9793 59.5718 32.6951C59.3239 32.4109 59.1999 32.0371 59.1999 31.5738C59.1999 31.1067 59.3277 30.729 59.5796 30.4409C59.8314 30.1489 60.1723 30.0049 60.6101 30.0049C60.7651 30.0049 60.9123 30.0243 61.0557 30.0633C61.199 30.1022 61.3114 30.1528 61.3966 30.2151L61.2727 30.5694C61.0596 30.4565 60.8387 30.3981 60.6024 30.3981C60.3157 30.3981 60.0871 30.5032 59.9205 30.7134C59.7539 30.9237 59.6687 31.2118 59.6687 31.5777C59.6687 31.9437 59.75 32.2162 59.9166 32.4265C60.0832 32.6328 60.3118 32.7379 60.6063 32.7379C60.8387 32.7379 61.0789 32.6756 61.323 32.5472L61.3811 32.9092C61.1835 33.0533 60.924 33.1233 60.6024 33.1233H60.5985Z" fill="white"/>
<path d="M63.9731 33.0612V31.2547C63.9731 30.955 63.9266 30.7369 63.8297 30.6007C63.7329 30.4644 63.5701 30.3943 63.3299 30.3943C63.0897 30.3943 62.9115 30.4527 62.7526 30.5656C62.5977 30.6785 62.4931 30.8304 62.4466 31.0095C62.4311 31.1457 62.4233 31.2976 62.4233 31.465V33.0612H61.97V28.9071L62.4233 28.8799V30.0946C62.4233 30.1997 62.4233 30.3282 62.4117 30.48C62.6674 30.1646 63.0045 30.005 63.4268 30.005C64.0893 30.005 64.4225 30.3982 64.4225 31.1808V33.0612H63.9692H63.9731Z" fill="white"/>
<path d="M64.9843 33.0611V30.0672H65.3639L65.4221 30.4954C65.5383 30.3475 65.6855 30.2307 65.8637 30.1411C66.0419 30.0516 66.2318 30.0049 66.4333 30.0049C66.7781 30.0049 67.0299 30.1022 67.1965 30.2969C67.3592 30.4915 67.4445 30.7874 67.4445 31.1884V33.0611H66.9912C66.9912 31.8619 66.9912 31.2196 66.9912 31.1339C66.9834 30.8809 66.933 30.694 66.8362 30.5733C66.7393 30.4565 66.5844 30.3942 66.3596 30.3942C66.1272 30.3942 65.9335 30.4487 65.7746 30.5616C65.6196 30.6745 65.5189 30.8225 65.4685 31.0015C65.4492 31.1222 65.4414 31.2624 65.4414 31.422V33.0572H64.9843V33.0611Z" fill="white"/>
<path d="M70.819 31.5661C70.819 32.0294 70.695 32.407 70.4509 32.6951C70.2068 32.9832 69.8659 33.1273 69.432 33.1273C68.9981 33.1273 68.6804 32.9832 68.4363 32.6912C68.1883 32.3992 68.0643 32.0255 68.0643 31.57C68.0643 31.1145 68.1883 30.729 68.4363 30.4409C68.6842 30.1528 69.0252 30.0088 69.4552 30.0088C69.8853 30.0088 70.2146 30.1528 70.4587 30.4409C70.7028 30.729 70.8229 31.1028 70.8229 31.5661H70.819ZM68.5293 31.5739C68.5293 31.9281 68.6067 32.2123 68.7656 32.4265C68.9206 32.6406 69.1491 32.7457 69.4513 32.7457C69.7535 32.7457 69.9705 32.6406 70.1216 32.4265C70.2727 32.2123 70.3463 31.9281 70.3463 31.5661C70.3463 31.204 70.2727 30.912 70.1216 30.7018C69.9705 30.4915 69.7458 30.3864 69.4397 30.3864C69.1336 30.3864 68.9167 30.4954 68.7617 30.7096C68.6067 30.9237 68.5293 31.2118 68.5293 31.57V31.5739Z" fill="white"/>
<path d="M72.2603 33.1157C71.9697 33.1157 71.7644 33.0378 71.6443 32.8821C71.5241 32.7264 71.4622 32.4539 71.4622 32.0684V28.911L71.9116 28.8838V31.8894C71.9116 32.0139 71.9116 32.1113 71.9155 32.1852C71.9193 32.2592 71.9232 32.3332 71.9348 32.4033C71.9465 32.4733 71.9619 32.5278 71.9774 32.5668C71.9968 32.6018 72.0201 32.6368 72.0549 32.668C72.0898 32.6991 72.1285 32.7186 72.1789 32.7264C72.2254 32.7381 72.2874 32.742 72.3571 32.742C72.4152 32.742 72.5276 32.7303 72.6981 32.7108L72.7213 33.0729C72.5354 33.104 72.3804 33.1196 72.2525 33.1196L72.2603 33.1157Z" fill="white"/>
<path d="M75.6232 31.5661C75.6232 32.0294 75.4992 32.407 75.2551 32.6951C75.0072 32.9832 74.6701 33.1273 74.2362 33.1273C73.8022 33.1273 73.4845 32.9832 73.2405 32.6912C72.9925 32.3992 72.8685 32.0255 72.8685 31.57C72.8685 31.1145 72.9925 30.729 73.2405 30.4409C73.4884 30.1528 73.8294 30.0088 74.2594 30.0088C74.6895 30.0088 75.0188 30.1528 75.2629 30.4409C75.507 30.729 75.6271 31.1028 75.6271 31.5661H75.6232ZM73.3334 31.5739C73.3334 31.9281 73.4109 32.2123 73.5698 32.4265C73.7248 32.6406 73.9533 32.7457 74.2555 32.7457C74.5577 32.7457 74.7747 32.6406 74.9258 32.4265C75.0769 32.2123 75.1505 31.9281 75.1505 31.5661C75.1505 31.204 75.0769 30.912 74.9258 30.7018C74.7747 30.4915 74.55 30.3864 74.2439 30.3864C73.9378 30.3864 73.7209 30.4954 73.5659 30.7096C73.4109 30.9237 73.3334 31.2118 73.3334 31.57V31.5739Z" fill="white"/>
<path d="M76.7235 34.4317L76.6809 34.019H77.2349C77.3899 34.019 77.5216 34.0073 77.6379 33.9879C77.7502 33.9645 77.8471 33.9295 77.9246 33.8789C78.0021 33.8283 78.0602 33.7737 78.1105 33.7115C78.157 33.6492 78.1919 33.5713 78.219 33.474C78.2423 33.3766 78.2616 33.2793 78.2694 33.1859C78.2771 33.0885 78.281 32.9717 78.281 32.8355V32.5707C78.1725 32.7265 78.0447 32.8472 77.9052 32.9328C77.7618 33.0185 77.5797 33.0613 77.3589 33.0613C77.1884 33.0613 77.0335 33.0301 76.8862 32.9717C76.7429 32.9133 76.6228 32.8355 76.5221 32.7343C76.4213 32.6369 76.34 32.524 76.2702 32.3917C76.2005 32.2593 76.1501 32.1308 76.1191 31.9907C76.0881 31.8544 76.0726 31.7142 76.0726 31.5741C76.0726 31.3561 76.0997 31.1536 76.154 30.9667C76.2082 30.7799 76.2857 30.6164 76.3903 30.4684C76.4949 30.3244 76.6344 30.2076 76.8049 30.1258C76.9754 30.044 77.1729 30.0012 77.3938 30.0012C77.5875 30.0012 77.7618 30.0402 77.9052 30.1141C78.0524 30.1881 78.1803 30.3049 78.2965 30.4606V30.0635H78.7382V32.8394C78.7382 32.9679 78.7382 33.0769 78.7304 33.1742C78.7227 33.2715 78.7072 33.3766 78.6839 33.4934C78.6607 33.6102 78.6258 33.7115 78.5832 33.7932C78.5406 33.875 78.4825 33.9606 78.4089 34.0463C78.3352 34.1319 78.2423 34.1981 78.1415 34.2526C78.0369 34.3032 77.9091 34.346 77.7541 34.3811C77.5991 34.4122 77.4248 34.4317 77.2311 34.4317H76.7274H76.7235ZM77.4209 32.672C77.5759 32.672 77.7076 32.6447 77.8238 32.5902C77.9401 32.5357 78.0292 32.4617 78.095 32.3644C78.1609 32.2671 78.2074 32.162 78.2384 32.0413C78.2694 31.9245 78.2849 31.7921 78.2849 31.6558V31.4339C78.2849 31.2899 78.2694 31.1536 78.2345 31.0329C78.2035 30.9083 78.1531 30.7993 78.0834 30.702C78.0137 30.6047 77.9246 30.5268 77.8122 30.4723C77.6999 30.4178 77.5681 30.3905 77.417 30.3905C77.293 30.3905 77.1768 30.4139 77.0761 30.4606C76.9754 30.5073 76.8901 30.5696 76.8242 30.6475C76.7584 30.7254 76.7003 30.8149 76.6577 30.9161C76.6112 31.0174 76.5802 31.1225 76.5569 31.2276C76.5376 31.3327 76.5259 31.4378 76.5259 31.5468C76.5259 31.6558 76.5376 31.7571 76.5569 31.8622C76.5802 31.9673 76.6112 32.0685 76.6615 32.1659C76.708 32.2632 76.7661 32.3488 76.832 32.4228C76.8979 32.4968 76.9831 32.5552 77.0838 32.6019C77.1846 32.6486 77.293 32.672 77.4131 32.672H77.4209Z" fill="white"/>
<path d="M80.0206 28.9812V29.5224H79.5634V28.9812H80.0206ZM80.0206 30.0713V33.0652H79.5634V30.0713H80.0206Z" fill="white"/>
<path d="M82.1321 33.1234C81.6981 33.1234 81.3572 32.9871 81.1092 32.7107C80.8613 32.4343 80.7373 32.0566 80.7373 31.5778C80.7373 31.0989 80.8574 30.7368 81.0976 30.4487C81.3378 30.1606 81.6555 30.0127 82.0468 30.0088C82.4149 30.0088 82.7093 30.1373 82.9263 30.3903C83.1433 30.6434 83.2518 30.9821 83.2518 31.4065C83.2518 31.4298 83.2518 31.4687 83.2518 31.5271C83.2518 31.5855 83.2518 31.6284 83.2518 31.6517H81.2061C81.21 31.9904 81.2991 32.2552 81.4696 32.4459C81.64 32.6367 81.8647 32.7301 82.1514 32.7301C82.4653 32.7301 82.783 32.6484 83.0968 32.481L83.1665 32.8508C82.8643 33.0377 82.5195 33.1273 82.1321 33.1273V33.1234ZM82.5892 30.62C82.4575 30.4604 82.2754 30.3825 82.043 30.3825C81.8105 30.3825 81.6207 30.4643 81.4773 30.6278C81.3301 30.7913 81.2448 31.0171 81.2177 31.3013H82.7907C82.7907 31.0055 82.7248 30.7758 82.5931 30.62H82.5892Z" fill="white"/>
<path d="M84.7666 33.1236C84.5652 33.1236 84.3753 33.1002 84.2049 33.0574C84.0344 33.0146 83.8949 32.9562 83.7864 32.89L83.8445 32.5046C84.1467 32.6681 84.4451 32.7459 84.7356 32.7459C85.1773 32.7459 85.4059 32.5902 85.4175 32.2749C85.4175 32.1425 85.371 32.0374 85.2781 31.9595C85.1851 31.8816 84.9991 31.796 84.724 31.7026L84.4993 31.6247C84.2397 31.539 84.0538 31.43 83.9414 31.3016C83.8291 31.1731 83.7748 31.0135 83.7709 30.8188C83.7709 30.5852 83.8639 30.3905 84.0499 30.2348C84.2359 30.0791 84.4954 30.0012 84.8209 30.0012C85.1463 30.0012 85.464 30.0674 85.743 30.1959L85.6112 30.5463C85.3323 30.4295 85.0688 30.3711 84.8248 30.3711C84.6349 30.3711 84.4877 30.41 84.3792 30.484C84.2707 30.558 84.2165 30.667 84.2165 30.8032C84.2165 30.92 84.2552 31.0096 84.3327 31.0719C84.4102 31.1341 84.5652 31.2042 84.7976 31.286C84.8557 31.3093 84.9332 31.3327 85.0223 31.3638C85.3245 31.4612 85.5338 31.578 85.6616 31.7103C85.7856 31.8427 85.8476 32.0257 85.8476 32.2515C85.8476 32.5279 85.7469 32.742 85.5531 32.8939C85.3594 33.0457 85.096 33.1197 84.7705 33.1197L84.7666 33.1236Z" fill="white"/>
<path d="M90.5084 33.0612L90.0396 31.7803H88.4395L87.9552 33.0612H87.4786L89.0206 29.02H89.501L90.9965 33.0612H90.5122H90.5084ZM89.8846 31.3871C89.501 30.2736 89.2918 29.6468 89.2531 29.5067L88.5944 31.3871H89.8846Z" fill="white"/>
<path d="M91.3879 33.0611V30.0672H91.7676L91.8257 30.4954C91.9419 30.3475 92.0891 30.2307 92.2673 30.1411C92.4456 30.0516 92.6354 30.0049 92.8369 30.0049C93.1817 30.0049 93.4335 30.1022 93.6001 30.2969C93.7628 30.4915 93.8481 30.7874 93.8481 31.1884V33.0611H93.3948C93.3948 31.8619 93.3948 31.2196 93.3948 31.1339C93.387 30.8809 93.3367 30.694 93.2398 30.5733C93.143 30.4565 92.988 30.3942 92.7633 30.3942C92.5308 30.3942 92.3371 30.4487 92.1782 30.5616C92.0233 30.6745 91.9225 30.8225 91.8722 31.0015C91.8528 31.1222 91.845 31.2624 91.845 31.422V33.0572H91.3879V33.0611Z" fill="white"/>
<path d="M96.657 32.629C96.5601 32.7809 96.4284 32.9015 96.2657 32.9872C96.103 33.0728 95.9209 33.1196 95.7194 33.1196C95.3281 33.1196 95.0181 32.9794 94.7973 32.6991C94.5765 32.4188 94.4641 32.0373 94.4641 31.5506C94.4641 31.0639 94.5765 30.7136 94.805 30.4294C95.0298 30.1452 95.3358 30.0011 95.7155 30.0011C95.9131 30.0011 96.0991 30.0439 96.2734 30.1296C96.4478 30.2152 96.5795 30.332 96.6647 30.4761L96.657 30.2152V28.8993L97.1064 28.8721V33.0534H96.719L96.6609 32.6212L96.657 32.629ZM95.762 32.7302C96.0603 32.7302 96.2812 32.6329 96.4284 32.4421C96.5756 32.2514 96.6454 31.975 96.6454 31.6168C96.6454 31.2119 96.5756 30.9082 96.4361 30.7058C96.2967 30.4994 96.0681 30.3982 95.7581 30.3982C95.6187 30.3982 95.4947 30.4294 95.3901 30.4878C95.2816 30.5462 95.1964 30.6318 95.1305 30.7369C95.0646 30.8459 95.0143 30.9666 94.9833 31.1068C94.9484 31.2469 94.9329 31.3988 94.9329 31.5623C94.9329 31.7959 94.96 31.9983 95.0181 32.1696C95.0763 32.3409 95.1654 32.4772 95.2932 32.5784C95.4211 32.6796 95.576 32.7302 95.762 32.7302Z" fill="white"/>
<path d="M99.2838 32.3955C99.7022 32.6019 100.152 32.707 100.628 32.707C101.217 32.707 101.512 32.4384 101.512 31.9011C101.512 31.7259 101.465 31.5857 101.372 31.4767C101.279 31.3677 101.109 31.2821 100.864 31.2237L100.066 31.0212C99.4581 30.8655 99.152 30.5385 99.152 30.0401C99.152 29.6547 99.2838 29.3705 99.5472 29.1836C99.8107 28.9968 100.171 28.9033 100.636 28.9033C100.88 28.9033 101.105 28.9306 101.318 28.9812C101.531 29.0357 101.705 29.1058 101.849 29.1953L101.713 29.5807C101.593 29.5146 101.43 29.4523 101.233 29.4017C101.031 29.3471 100.83 29.3238 100.624 29.3238C99.9695 29.3238 99.6402 29.5535 99.6402 30.009C99.6402 30.1647 99.6906 30.2893 99.7913 30.3827C99.892 30.4762 100.043 30.5463 100.245 30.5969L101.008 30.7837C101.333 30.8616 101.581 30.9862 101.748 31.1575C101.914 31.3288 102 31.5741 102 31.8894C102 32.3021 101.876 32.6097 101.624 32.8199C101.372 33.0262 101.031 33.1314 100.601 33.1314C100.279 33.1314 99.9928 33.0963 99.7409 33.0301C99.4891 32.9639 99.2915 32.8861 99.1443 32.7926L99.2838 32.3994V32.3955Z" fill="white"/>
<path d="M103.863 33.1234C103.429 33.1234 103.088 32.9871 102.84 32.7107C102.592 32.4343 102.469 32.0566 102.469 31.5778C102.469 31.0989 102.589 30.7368 102.829 30.4487C103.069 30.1606 103.387 30.0127 103.778 30.0088C104.146 30.0088 104.441 30.1373 104.658 30.3903C104.874 30.6434 104.983 30.9821 104.983 31.4065C104.983 31.4298 104.983 31.4687 104.983 31.5271C104.983 31.5855 104.983 31.6284 104.983 31.6517H102.937C102.941 31.9904 103.03 32.2552 103.201 32.4459C103.371 32.6367 103.596 32.7301 103.883 32.7301C104.196 32.7301 104.514 32.6484 104.828 32.481L104.898 32.8508C104.596 33.0377 104.251 33.1273 103.863 33.1273V33.1234ZM104.324 30.62C104.193 30.4604 104.01 30.3825 103.778 30.3825C103.546 30.3825 103.356 30.4643 103.212 30.6278C103.065 30.7913 102.98 31.0171 102.953 31.3013H104.526C104.526 31.0055 104.46 30.7758 104.328 30.62H104.324Z" fill="white"/>
<path d="M106.947 30.0439C107.029 30.0439 107.102 30.0478 107.168 30.0595L107.153 30.48C107.071 30.4644 106.998 30.4566 106.936 30.4566C106.684 30.4566 106.478 30.5462 106.32 30.7214C106.161 30.8965 106.083 31.1185 106.083 31.3793V33.0612H105.63C105.63 31.2236 105.63 30.2269 105.63 30.0673H106.006L106.048 30.6046C106.153 30.4371 106.281 30.3009 106.444 30.1958C106.602 30.0906 106.773 30.04 106.951 30.04L106.947 30.0439Z" fill="white"/>
<path d="M108.4 33.0613L107.246 30.0674H107.73L108.388 31.8466L108.66 32.6058C108.722 32.4111 108.807 32.1619 108.915 31.8544C109.051 31.4689 109.268 30.8733 109.555 30.0713H110.039L108.892 33.0652H108.4V33.0613Z" fill="white"/>
<path d="M110.973 28.9812V29.5224H110.516V28.9812H110.973ZM110.973 30.0713V33.0652H110.516V30.0713H110.973Z" fill="white"/>
<path d="M113.084 33.1233C112.646 33.1233 112.305 32.9793 112.057 32.6951C111.81 32.4109 111.686 32.0371 111.686 31.5738C111.686 31.1067 111.813 30.729 112.065 30.4409C112.317 30.1489 112.658 30.0049 113.096 30.0049C113.251 30.0049 113.398 30.0243 113.541 30.0633C113.685 30.1022 113.797 30.1528 113.882 30.2151L113.758 30.5694C113.545 30.4565 113.324 30.3981 113.088 30.3981C112.801 30.3981 112.573 30.5032 112.406 30.7134C112.24 30.9237 112.154 31.2118 112.154 31.5777C112.154 31.9437 112.236 32.2162 112.402 32.4265C112.569 32.6328 112.797 32.7379 113.092 32.7379C113.324 32.7379 113.565 32.6756 113.809 32.5472L113.867 32.9092C113.669 33.0533 113.41 33.1233 113.088 33.1233H113.084Z" fill="white"/>
<path d="M115.711 33.1234C115.277 33.1234 114.936 32.9871 114.688 32.7107C114.44 32.4343 114.316 32.0566 114.316 31.5778C114.316 31.0989 114.436 30.7368 114.677 30.4487C114.917 30.1606 115.234 30.0127 115.626 30.0088C115.994 30.0088 116.288 30.1373 116.505 30.3903C116.722 30.6434 116.831 30.9821 116.831 31.4065C116.831 31.4298 116.831 31.4687 116.831 31.5271C116.831 31.5855 116.831 31.6284 116.831 31.6517H114.785C114.789 31.9904 114.878 32.2552 115.048 32.4459C115.219 32.6367 115.444 32.7301 115.73 32.7301C116.044 32.7301 116.362 32.6484 116.676 32.481L116.745 32.8508C116.443 33.0377 116.098 33.1273 115.711 33.1273V33.1234ZM116.168 30.62C116.036 30.4604 115.854 30.3825 115.622 30.3825C115.389 30.3825 115.2 30.4643 115.056 30.6278C114.909 30.7913 114.824 31.0171 114.797 31.3013H116.37C116.37 31.0055 116.304 30.7758 116.172 30.62H116.168Z" fill="white"/>
<path d="M118.346 33.1236C118.144 33.1236 117.954 33.1002 117.784 33.0574C117.613 33.0146 117.474 32.9562 117.365 32.89L117.423 32.5046C117.726 32.6681 118.024 32.7459 118.315 32.7459C118.756 32.7459 118.985 32.5902 118.996 32.2749C118.996 32.1425 118.95 32.0374 118.857 31.9595C118.764 31.8816 118.578 31.796 118.303 31.7026L118.078 31.6247C117.819 31.539 117.633 31.43 117.52 31.3016C117.408 31.1731 117.354 31.0135 117.35 30.8188C117.35 30.5852 117.443 30.3905 117.629 30.2348C117.815 30.0791 118.074 30.0012 118.4 30.0012C118.725 30.0012 119.043 30.0674 119.322 30.1959L119.19 30.5463C118.911 30.4295 118.648 30.3711 118.404 30.3711C118.214 30.3711 118.067 30.41 117.958 30.484C117.85 30.558 117.795 30.667 117.795 30.8032C117.795 30.92 117.834 31.0096 117.912 31.0719C117.989 31.1341 118.144 31.2042 118.377 31.286C118.435 31.3093 118.512 31.3327 118.601 31.3638C118.903 31.4612 119.113 31.578 119.241 31.7103C119.365 31.8427 119.426 32.0257 119.426 32.2515C119.426 32.5279 119.326 32.742 119.132 32.8939C118.938 33.0457 118.675 33.1197 118.349 33.1197L118.346 33.1236Z" fill="white"/>
<path d="M121.515 33.0612V29.0278H121.987V32.6407H123.754L123.739 33.0612H121.515Z" fill="white"/>
<path d="M125.153 33.1156C124.858 33.1156 124.653 33.0456 124.529 32.9015C124.405 32.7575 124.339 32.5278 124.335 32.2046V30.406H123.894L123.913 30.1062L124.335 30.0672L124.49 29.382L124.789 29.3704V30.0672H125.618V30.406H124.789V32.1229C124.789 32.3487 124.823 32.5083 124.893 32.6017C124.963 32.6952 125.079 32.7419 125.246 32.7419C125.304 32.7419 125.436 32.7263 125.633 32.6991L125.653 33.0572C125.436 33.0962 125.273 33.1156 125.16 33.1156H125.153Z" fill="white"/>
<path d="M128.155 32.629C128.058 32.7809 127.927 32.9015 127.764 32.9872C127.601 33.0728 127.419 33.1196 127.218 33.1196C126.826 33.1196 126.517 32.9794 126.296 32.6991C126.075 32.4188 125.962 32.0373 125.962 31.5506C125.962 31.0639 126.075 30.7136 126.303 30.4294C126.528 30.1452 126.834 30.0011 127.214 30.0011C127.411 30.0011 127.597 30.0439 127.772 30.1296C127.946 30.2152 128.078 30.332 128.163 30.4761L128.155 30.2152V28.8993L128.605 28.8721V33.0534H128.217L128.159 32.6212L128.155 32.629ZM127.264 32.7302C127.563 32.7302 127.783 32.6329 127.931 32.4421C128.078 32.2514 128.148 31.975 128.148 31.6168C128.148 31.2119 128.078 30.9082 127.938 30.7058C127.799 30.4994 127.57 30.3982 127.26 30.3982C127.121 30.3982 126.997 30.4294 126.892 30.4878C126.784 30.5462 126.699 30.6318 126.633 30.7369C126.567 30.8459 126.516 30.9666 126.486 31.1068C126.451 31.2469 126.435 31.3988 126.435 31.5623C126.435 31.7959 126.462 31.9983 126.52 32.1696C126.578 32.3409 126.668 32.4772 126.795 32.5784C126.923 32.6796 127.078 32.7302 127.264 32.7302Z" fill="white"/>
</svg>
